<svg width="75" height="38" viewBox="0 0 75 38" fill="none" xmlns="http://www.w3.org/2000/svg">
<path id="Vector" d="M33.75 37.5H18.75C13.5625 37.5 9.14125 35.6712 5.48625 32.0137C1.83125 28.3562 0.0025 23.935 0 18.75C0 13.5625 1.82875 9.14125 5.48625 5.48625C9.14375 1.83125 13.565 0.0025 18.75 0H33.75V7.5H18.75C15.625 7.5 12.9688 8.59375 10.7813 10.7812C8.59375 12.9688 7.5 15.625 7.5 18.75C7.5 21.875 8.59375 24.5312 10.7813 26.7188C12.9688 28.9062 15.625 30 18.75 30H33.75V37.5ZM22.5 22.5V15H52.5V22.5H22.5ZM41.25 37.5V30H56.25C59.375 30 62.0313 28.9062 64.2188 26.7188C66.4063 24.5312 67.5 21.875 67.5 18.75C67.5 15.625 66.4063 12.9688 64.2188 10.7812C62.0313 8.59375 59.375 7.5 56.25 7.5H41.25V0H56.25C61.4375 0 65.86 1.82875 69.5175 5.48625C73.175 9.14375 75.0025 13.565 75 18.75C75 23.9375 73.1713 28.36 69.5138 32.0175C65.8563 35.675 61.435 37.5025 56.25 37.5H41.25Z" fill="#FF9F33"/>
</svg>
